<?xml version="1.0" standalone="no"?>
<!DOCTYPE svg PUBLIC "-//W3C//DTD SVG 20010904//EN"
 "http://www.w3.org/TR/2001/REC-SVG-20010904/DTD/svg10.dtd">
<svg version="1.0" xmlns="http://www.w3.org/2000/svg"
 width="503.000000pt" height="503.000000pt" viewBox="0 0 503.000000 503.000000"
 preserveAspectRatio="xMidYMid meet">
<metadata>
Created by potrace 1.14, written by Peter Selinger 2001-2017
</metadata>
<g transform="translate(0.000000,503.000000) scale(0.100000,-0.100000)"
fill="#000000" stroke="none">
<path d="M2235 4991 c-3 -2 -38 -7 -80 -11 -52 -5 -95 -17 -138 -37 -34 -17
-82 -39 -107 -49 -25 -11 -66 -37 -91 -60 -25 -22 -56 -47 -67 -55 -11 -9 -37
-44 -57 -80 -20 -35 -49 -77 -65 -92 -17 -15 -32 -40 -36 -55 -10 -49 -27 -83
-71 -150 -23 -36 -43 -73 -43 -81 0 -8 -9 -46 -21 -85 -45 -153 -44 -145 -26
-196 9 -26 17 -55 17 -65 0 -9 6 -29 14 -43 8 -15 24 -58 36 -97 13 -38 42
-112 66 -164 24 -52 44 -95 44 -96 0 -1 -37 -26 -81 -55 -244 -159 -472 -403
-607 -650 -104 -190 -175 -403 -207 -614 -19 -132 -19 -391 0 -518 56 -376
206 -688 470 -981 33 -37 63 -67 68 -67 4 0 7 65 7 144 0 124 2 146 19 167 10
13 40 62 67 109 78 137 189 301 243 360 28 30 54 63 57 73 16 52 105 159 250
302 92 91 137 151 152 200 6 22 26 55 44 72 38 36 145 103 166 103 7 0 -15
-32 -49 -70 -61 -69 -94 -88 -50 -30 12 17 17 30 12 30 -13 0 -51 -49 -51 -65
0 -7 -7 -16 -16 -19 -14 -5 -15 -4 -4 9 7 9 10 19 6 23 -15 14 -36 -33 -34
-73 4 -73 72 -139 263 -257 175 -107 233 -123 440 -122 167 0 263 19 380 75
72 34 170 115 208 173 47 71 87 180 93 258 7 87 -18 203 -66 299 -33 67 -71
201 -69 246 1 15 3 21 6 13 3 -13 14 -15 66 -9 34 3 96 14 137 22 41 9 122 21
180 27 58 6 132 18 165 26 33 8 106 20 162 27 l103 12 -48 84 c-145 253 -383
495 -641 652 -68 41 -77 50 -82 83 -8 51 -20 60 -54 42 -16 -8 -32 -13 -37
-10 -17 11 -40 80 -44 134 -2 30 -7 68 -10 84 -3 15 -7 121 -9 235 -2 196 -4
213 -30 297 -16 49 -40 105 -55 124 -15 19 -33 46 -40 60 -15 30 -51 63 -100
92 -19 12 -62 48 -95 80 -65 62 -163 126 -242 157 -26 10 -68 29 -93 42 -41
22 -57 24 -183 24 -76 0 -140 -2 -142 -4z m145 -624 c0 -5 9 -7 20 -4 12 3 18
1 14 -5 -4 -6 0 -15 7 -20 11 -7 11 -11 2 -15 -7 -2 -13 -14 -13 -24 0 -11 5
-17 10 -14 6 3 13 -2 17 -12 4 -10 9 -20 13 -23 32 -27 47 -91 17 -74 -7 4 -2
-3 11 -15 12 -12 22 -28 22 -36 0 -8 5 -15 10 -15 6 0 10 -11 10 -25 0 -14 4
-25 8 -25 5 0 9 -6 9 -12 0 -7 3 -23 7 -36 5 -16 4 -22 -5 -20 -7 2 -15 -8
-19 -22 -4 -15 -13 -24 -23 -24 -9 1 -14 -2 -11 -7 3 -5 12 -9 20 -9 8 0 14
-4 14 -10 0 -5 -11 -10 -24 -10 -28 0 -44 -19 -26 -30 18 -11 -4 -22 -27 -13
-17 7 -17 6 0 -11 22 -22 22 -33 0 -15 -13 11 -17 11 -20 2 -3 -7 -14 -13 -24
-13 -11 0 -18 -4 -14 -10 3 -5 13 -6 22 -3 11 4 14 3 9 -6 -5 -7 -14 -10 -22
-7 -8 3 -17 -1 -20 -9 -8 -19 -44 -20 -44 -2 0 8 -10 13 -22 13 -14 -1 -22 4
-20 12 2 10 -2 10 -17 2 -27 -14 -34 -13 -28 5 9 23 -6 26 -123 26 l-110 -1 5
31 c5 27 4 29 -14 19 -32 -16 -33 -12 -6 17 14 15 25 34 25 41 0 8 6 12 14 9
20 -8 40 18 33 43 -4 16 1 24 20 31 21 8 23 12 13 24 -7 9 -10 26 -6 42 6 27
6 27 -9 9 -8 -11 -15 -23 -15 -28 0 -4 -4 -8 -9 -8 -6 0 -6 12 0 30 8 21 18
30 32 30 17 0 19 2 8 9 -12 8 -12 12 -2 25 7 9 17 13 22 10 5 -3 6 2 3 10 -3
9 -2 16 3 16 6 0 15 18 22 41 11 35 14 39 28 27 15 -12 16 -10 9 17 -3 17 -3
25 1 20 4 -6 29 -10 54 -10 45 0 46 1 38 23 -12 32 -11 35 7 28 8 -3 13 -2 10
3 -3 5 1 11 9 15 8 3 15 0 15 -7 0 -8 4 -7 9 3 6 8 7 18 5 22 -3 5 6 3 20 -4
14 -6 26 -16 26 -21z m-295 -177 c3 -5 1 -10 -4 -10 -6 0 -11 5 -11 10 0 6 2
10 4 10 3 0 8 -4 11 -10z m885 -246 c0 -8 -4 -12 -10 -9 -5 3 -10 10 -10 16 0
5 5 9 10 9 6 0 10 -7 10 -16z m-42 -22 c-10 -2 -18 -7 -18 -12 0 -14 27 -19
39 -7 8 8 11 8 11 0 0 -6 -7 -14 -16 -17 -8 -3 -13 -10 -9 -16 6 -9 -55 -31
-65 -23 -3 2 6 12 19 22 16 12 20 21 12 25 -6 4 -11 2 -11 -3 0 -6 -5 -11 -11
-11 -6 0 -1 13 11 30 15 20 26 27 38 22 16 -6 16 -7 0 -10z m-988 -92 c0 -5
-4 -10 -10 -10 -5 0 -10 5 -10 10 0 6 5 10 10 10 6 0 10 -4 10 -10z m527 -84
c-4 -10 -1 -13 7 -10 8 3 16 -5 21 -18 7 -22 14 -88 9 -88 -14 0 -82 39 -77
44 4 4 1 11 -7 16 -12 8 -12 10 2 15 10 4 14 13 11 22 -3 8 0 19 8 24 21 13
32 11 26 -5z m515 -58 c-7 -7 -12 -8 -12 -2 0 6 3 14 7 17 3 4 9 5 12 2 2 -3
-1 -11 -7 -17z m-148 -14 c3 -8 2 -12 -4 -9 -6 3 -10 10 -10 16 0 14 7 11 14
-7z m-709 -14 c9 -15 -27 -59 -50 -60 -11 -1 -37 -7 -59 -15 -21 -7 -44 -11
-51 -9 -17 7 -26 42 -12 51 7 4 3 9 -9 14 -17 7 -17 8 -1 8 9 1 17 6 17 11 0
13 157 13 165 0z m785 -20 c0 -5 -4 -10 -10 -10 -5 0 -10 5 -10 10 0 6 5 10
10 10 6 0 10 -4 10 -10z m-150 -30 c-24 -24 -30 -25 -30 -6 0 14 14 24 38 25
7 1 3 -8 -8 -19z m-197 -15 c16 -14 26 -29 22 -34 -3 -5 9 -23 26 -39 28 -26
29 -30 15 -45 -9 -8 -16 -22 -15 -29 0 -10 2 -10 6 0 7 19 26 14 21 -5 -4 -18
26 -56 36 -46 3 3 18 -8 33 -26 15 -17 35 -31 45 -31 9 0 20 -5 24 -11 3 -6
15 -9 25 -6 11 3 19 1 19 -4 0 -5 -4 -9 -9 -9 -5 0 -11 -10 -14 -21 -5 -18
-11 -21 -39 -17 -24 4 -43 -1 -68 -18 -19 -13 -40 -24 -47 -24 -7 0 -13 -4
-13 -9 0 -5 -11 -11 -25 -13 -26 -5 -35 6 -12 15 6 3 -3 6 -20 6 -18 1 -35 0
-37 -1 -2 -2 -13 5 -23 15 -21 19 -33 14 -33 -15 0 -10 -5 -18 -11 -18 -12 0
-1 42 14 51 6 4 7 25 4 50 -3 26 -2 37 3 29 5 -8 12 -11 16 -7 4 3 1 13 -6 22
-7 8 -9 15 -4 15 12 0 35 51 28 62 -3 4 -10 6 -15 2 -5 -3 -6 -10 -3 -16 5 -7
2 -8 -5 -3 -7 4 -11 20 -9 35 3 22 1 27 -11 22 -12 -4 -13 -2 -5 7 8 8 9 25 3
49 -9 40 -3 55 11 32 7 -11 10 -7 10 16 0 52 19 57 63 19z m613 -13 c1 -30 9
-47 27 -60 13 -10 15 -18 7 -32 -11 -21 -13 -37 -4 -27 4 4 16 -10 27 -30 15
-30 17 -41 8 -55 -7 -11 -9 -23 -6 -27 3 -5 -2 -11 -10 -14 -10 -4 -13 -17 -9
-44 2 -21 2 -32 -2 -25 -3 6 -13 12 -21 12 -14 0 -14 -2 0 -23 15 -24 12 -77
-4 -77 -5 0 -9 -11 -9 -25 0 -16 -6 -25 -15 -25 -8 0 -15 -4 -15 -10 0 -5 -8
-10 -18 -10 -26 0 -34 -11 -21 -27 9 -10 8 -13 -5 -13 -9 0 -16 -5 -16 -11 0
-5 -6 -7 -12 -3 -18 11 -48 12 -48 2 0 -5 -5 -6 -12 -2 -7 4 -25 9 -40 11 -22
2 -28 -1 -28 -17 0 -15 -7 -20 -29 -20 -41 0 -91 20 -91 36 0 8 -9 18 -21 22
-20 8 -20 9 -3 23 9 7 19 13 21 12 10 -8 24 0 39 23 23 34 19 117 -7 171 -11
23 -21 51 -22 62 0 11 -4 18 -8 15 -4 -2 -11 6 -14 18 -4 13 -14 31 -22 40 -9
10 -12 22 -7 30 13 21 10 41 -9 67 -24 34 -10 43 40 26 76 -26 278 -18 297 13
2 4 17 8 33 9 21 1 29 -3 29 -15z m-1035 -26 c-11 -14 -47 -25 -96 -32 -11 -1
-29 -5 -40 -9 -18 -6 -18 -5 -2 5 9 6 17 17 17 25 0 18 16 23 79 24 45 1 52
-1 42 -13z m129 -6 c20 -12 9 -21 -18 -13 -12 3 -19 9 -16 14 7 11 15 11 34
-1z m1117 -85 c-2 -15 -6 -12 -14 15 -5 19 -8 39 -5 44 8 14 23 -35 19 -59z
m-1206 18 c4 -5 -7 -18 -24 -29 l-33 -21 4 33 c3 27 8 32 25 28 11 -2 24 -7
28 -11z m94 -50 c-3 -32 -13 -68 -21 -80 -16 -25 -19 -47 -5 -38 5 3 12 1 15
-4 3 -4 -4 -8 -16 -7 -12 0 -23 -4 -25 -9 -2 -6 14 -10 39 -8 39 2 41 1 24
-12 -10 -8 -23 -12 -27 -9 -5 3 -9 0 -9 -7 0 -8 11 -10 35 -6 31 5 35 3 35
-16 0 -17 3 -19 9 -8 14 22 22 -52 17 -157 -4 -86 -7 -95 -34 -127 -17 -18
-32 -32 -35 -29 -2 2 -10 -2 -17 -11 -7 -8 -16 -15 -20 -15 -15 0 -21 33 -8
43 10 6 9 8 -3 4 -9 -3 -22 0 -29 6 -10 10 -10 7 -1 -11 11 -21 11 -22 -8 -10
-11 6 -22 20 -24 29 -3 12 -11 16 -26 12 -15 -4 -21 -1 -21 11 0 9 -4 16 -10
16 -5 0 -10 -5 -10 -12 0 -6 -12 -1 -26 13 -19 18 -24 31 -20 51 3 15 1 28 -5
30 -19 6 -17 57 2 74 10 9 16 21 12 27 -3 6 -1 7 5 3 6 -3 19 7 28 24 10 16
26 33 36 36 10 3 18 9 18 14 0 5 -6 7 -14 4 -25 -9 -30 18 -8 37 12 9 22 22
22 28 0 6 4 11 9 11 5 0 16 15 24 33 9 17 30 47 48 65 40 41 20 42 -56 2 -70
-37 -82 -38 -32 -4 39 26 115 63 131 64 4 0 5 -26 1 -57z m1118 3 c8 8 1 -91
-7 -104 -10 -16 -24 -6 -26 16 0 9 -3 42 -6 72 l-5 55 19 -22 c11 -12 22 -20
25 -17z m-1203 -22 c-8 -8 -23 -20 -34 -25 -13 -6 -10 0 9 15 34 29 43 33 25
10z m549 -340 c-7 -8 -7 -14 1 -19 6 -3 8 -11 5 -16 -4 -5 0 -9 8 -9 10 0 13
-8 9 -25 -4 -26 -16 -32 -27 -15 -8 12 -35 1 -35 -14 0 -7 -11 -18 -25 -24
-21 -10 -25 -9 -25 4 0 14 -3 14 -15 4 -27 -22 -41 3 -24 42 7 18 12 38 11 45
-2 7 12 19 30 26 18 8 39 21 47 31 13 15 15 15 32 0 14 -12 16 -21 8 -30z m55
-112 c3 -5 -21 -21 -52 -36 -48 -23 -65 -26 -97 -20 l-40 8 54 8 c29 4 64 17
78 28 27 21 48 25 57 12z m86 -8 c0 -2 -12 -4 -26 -4 -14 0 -23 4 -20 9 6 8
46 4 46 -5z m-726 -20 c3 -8 2 -12 -4 -9 -6 3 -10 10 -10 16 0 14 7 11 14 -7z
m804 -125 c7 -12 11 -24 8 -27 -3 -3 -6 0 -6 7 0 7 -4 9 -10 6 -5 -3 -10 -21
-10 -39 0 -27 -6 -36 -40 -55 -22 -12 -40 -26 -40 -31 0 -22 -33 -40 -62 -35
-20 4 -37 0 -48 -10 -16 -14 -22 -15 -42 -4 -13 7 -29 12 -35 11 -22 -5 -65
30 -54 41 14 14 14 47 0 47 -5 0 -8 4 -4 9 3 5 31 15 63 21 58 11 84 20 135
47 71 37 127 42 145 12z m-343 -110 c11 -17 -1 -21 -15 -4 -8 9 -8 15 -2 15 6
0 14 -5 17 -11z m682 -41 c-3 -8 -6 -5 -6 6 -1 11 2 17 5 13 3 -3 4 -12 1 -19z
m-14 -33 c-3 -9 -8 -14 -10 -11 -3 3 -2 9 2 15 9 16 15 13 8 -4z m-325 -193
c-14 -36 -23 -40 -32 -16 -5 14 -9 14 -23 3 -14 -12 -16 -12 -12 0 3 8 12 18
20 21 8 4 23 12 34 17 26 14 27 12 13 -25z m422 3 c0 -5 -5 -3 -10 5 -5 8 -10
20 -10 25 0 6 5 3 10 -5 5 -8 10 -19 10 -25z m-500 15 c0 -5 -7 -10 -16 -10
-8 0 -12 5 -9 10 3 6 10 10 16 10 5 0 9 -4 9 -10z m-35 -40 c3 -5 1 -10 -4
-10 -6 0 -11 5 -11 10 0 6 2 10 4 10 3 0 8 -4 11 -10z m564 -65 c0 -13 -5 -8
-14 15 -18 46 -17 74 0 35 8 -16 14 -39 14 -50z m-1305 -310 c-4 -8 -11 -15
-16 -15 -6 0 -5 6 2 15 7 8 14 15 16 15 2 0 1 -7 -2 -15z m1297 -22 c-12 -20
-14 -14 -5 12 4 9 9 14 11 11 3 -2 0 -13 -6 -23z m-51 -116 c-28 -47 -120
-122 -201 -163 -62 -31 -108 -45 -186 -58 -32 -5 -32 -5 -14 13 19 19 40 28
83 36 23 5 37 10 90 35 14 7 31 9 37 5 6 -3 10 -2 9 3 -2 6 15 26 37 46 30 27
42 33 53 24 10 -8 15 -9 20 -1 21 33 87 110 90 103 2 -4 -7 -23 -18 -43z
m-1145 -12 l40 -37 -48 33 c-52 36 -89 72 -52 51 11 -6 38 -28 60 -47z"/>
<path d="M2298 4333 c7 -3 16 -2 19 1 4 3 -2 6 -13 5 -11 0 -14 -3 -6 -6z"/>
<path d="M2115 4160 c3 -5 8 -10 11 -10 2 0 4 5 4 10 0 6 -5 10 -11 10 -5 0
-7 -4 -4 -10z"/>
<path d="M2726 3301 c-3 -5 1 -11 9 -15 8 -3 15 -1 15 4 0 13 -18 22 -24 11z"/>
<path d="M1179 3433 l-34 -38 38 34 c34 33 42 41 34 41 -2 0 -19 -17 -38 -37z"/>
<path d="M3820 3457 c0 -2 15 -16 33 -33 l32 -29 -29 33 c-28 30 -36 37 -36
29z"/>
<path d="M1044 3298 l-19 -23 23 19 c21 18 27 26 19 26 -2 0 -12 -10 -23 -22z"/>
<path d="M3975 3300 c10 -11 20 -20 23 -20 3 0 -3 9 -13 20 -10 11 -20 20 -23
20 -3 0 3 -9 13 -20z"/>
<path d="M4250 1921 c0 -6 4 -13 10 -16 6 -3 7 1 4 9 -7 18 -14 21 -14 7z"/>
</g>
</svg>
